<svg data-v-423bf9ae="" xmlns="http://www.w3.org/2000/svg" viewBox="0 0 410 90" class="iconLeft"><!----><!----><!----><g data-v-423bf9ae="" id="864d4622-f4ef-49d1-b203-0bd29bfb2281" fill="#1A1626" transform="matrix(3.4285714285714284,0,0,3.4285714285714284,109.17713952064514,-2.657142707279746)"><path d="M4.79 11.02Q5.53 11.02 6.16 11.45Q6.79 11.87 7.15 12.61Q7.52 13.34 7.52 14.21L7.52 14.21Q7.52 15.44 7.17 16.35Q6.83 17.25 6.19 17.74Q5.54 18.23 4.68 18.23L4.68 18.23Q4.47 18.23 4.26 18.17Q4.06 18.10 3.75 17.95L3.75 17.95L4.12 17.15Q4.47 17.37 5.12 17.37L5.12 17.37Q5.71 17.37 6.08 16.60Q6.45 15.82 6.45 14.60L6.45 14.60Q6.45 13.90 6.17 13.32Q5.89 12.74 5.40 12.41Q4.91 12.08 4.31 12.08L4.31 12.08Q3.58 12.08 3.19 12.87Q2.80 13.65 2.80 15.09L2.80 15.09L2.80 22.13L1.58 22.65L1.58 12.33Q1.58 12.08 1.47 11.93Q1.36 11.77 1.18 11.77L1.18 11.77Q1.04 11.77 0.87 11.91Q0.70 12.05 0.45 12.36L0.45 12.36L0.24 12.15Q0.41 11.68 0.83 11.35Q1.25 11.02 1.67 11.02L1.67 11.02Q2.30 11.02 2.58 11.39Q2.86 11.76 2.86 12.59L2.86 12.59L2.91 12.59Q3.23 11.89 3.75 11.45Q4.26 11.02 4.79 11.02L4.79 11.02ZM12.07 10.96L12.32 11.26Q11.27 11.93 10.67 12.75Q10.07 13.58 10.07 14.70L10.07 14.70Q10.07 15.33 10.33 15.97Q10.60 16.60 11.13 17.02Q11.66 17.44 12.40 17.44L12.40 17.44Q13.01 17.44 13.48 17.16Q13.94 16.88 14.20 16.41Q14.46 15.93 14.46 15.36L14.46 15.36Q14.46 14.70 14.06 14.01Q13.66 13.33 13.02 12.85Q12.38 12.38 11.70 12.32L11.70 12.32Q11.98 12.04 12.38 11.73Q12.77 11.42 13.17 11.13L13.17 11.13Q14.14 11.45 14.70 12.36Q15.26 13.26 15.26 14.36L15.26 14.36Q15.26 15.34 14.86 16.25Q14.46 17.15 13.69 17.72Q12.92 18.28 11.87 18.28L11.87 18.28Q11.03 18.28 10.32 17.87Q9.62 17.46 9.21 16.74Q8.81 16.03 8.81 15.16L8.81 15.16Q8.81 13.64 9.71 12.52Q10.61 11.40 12.07 10.96L12.07 10.96ZM20.50 10.96Q21.25 10.96 21.76 11.37Q22.26 11.77 22.26 12.57L22.26 12.57Q22.26 13.22 21.57 14.01Q20.87 14.80 19.94 15.46Q19.01 16.11 18.35 16.38L18.35 16.38Q18.70 16.94 19.15 17.16Q19.60 17.37 20.20 17.37L20.20 17.37Q20.87 17.37 21.54 17.03Q22.20 16.69 22.64 16.14L22.64 16.14L22.81 16.44Q22.12 17.32 21.35 17.79Q20.58 18.26 19.46 18.26L19.46 18.26Q18.61 18.26 17.93 17.84Q17.26 17.42 16.88 16.71Q16.51 16.00 16.51 15.18L16.51 15.18Q16.51 14.14 17.07 13.16Q17.63 12.18 18.55 11.57Q19.47 10.96 20.50 10.96L20.50 10.96ZM19.77 11.84Q19.15 11.84 18.67 12.24Q18.19 12.63 17.91 13.24Q17.64 13.86 17.64 14.52L17.64 14.52Q17.64 15.39 18.05 16.00L18.05 16.00Q18.63 15.74 19.32 15.20Q20.01 14.66 20.48 14.03Q20.96 13.40 20.96 12.88L20.96 12.88Q20.96 11.84 19.77 11.84L19.77 11.84ZM25.89 7.36L25.89 11.09L27.83 11.09L27.41 11.98L25.89 11.98L25.89 16.91Q25.89 17.12 26.01 17.26Q26.14 17.39 26.35 17.39L26.35 17.39Q26.64 17.39 27.16 16.84L27.16 16.84L27.36 17.05Q27.09 17.58 26.72 17.84Q26.35 18.10 26.02 18.17Q25.69 18.23 25.69 18.17L25.69 18.17Q25.70 18.17 25.73 18.17Q25.76 18.16 25.82 18.16L25.82 18.16Q24.58 18.16 24.58 16.74L24.58 16.74L24.58 11.98L23.53 11.98L23.97 11.09L24.58 11.09L24.58 7.87L25.89 7.36ZM30.59 6.41L30.11 9.67L29.65 9.84L29.08 6.93L30.59 6.41ZM30.58 11.14L30.58 16.91Q30.58 17.12 30.68 17.26Q30.79 17.39 30.98 17.39L30.98 17.39Q31.14 17.39 31.33 17.25Q31.51 17.11 31.71 16.84L31.71 16.84L31.93 17.05Q31.61 17.65 31.16 17.91Q30.70 18.16 30.32 18.16L30.32 18.16Q29.82 18.16 29.55 17.84Q29.27 17.51 29.27 16.74L29.27 16.74L29.27 11.65L30.58 11.14ZM36.74 11.00Q37.31 11.00 37.80 11.33Q38.29 11.65 38.57 12.35L38.57 12.35L37.42 12.94Q37.28 12.45 36.87 12.17Q36.46 11.89 35.99 11.89L35.99 11.89Q35.32 11.89 34.80 12.24Q34.29 12.59 34.01 13.13Q33.73 13.68 33.73 14.24L33.73 14.24Q33.73 15.22 34.05 15.93Q34.37 16.63 34.93 17.00Q35.49 17.37 36.19 17.37L36.19 17.37Q37.03 17.37 37.66 16.96Q38.29 16.55 38.85 15.90L38.85 15.90L39.09 16.13Q38.40 17.18 37.64 17.72Q36.88 18.26 35.77 18.26L35.77 18.26Q34.90 18.26 34.22 17.85Q33.53 17.44 33.14 16.70Q32.75 15.95 32.75 14.97L32.75 14.97Q32.75 13.87 33.19 12.97Q33.64 12.07 34.54 11.54Q35.43 11.00 36.74 11.00L36.74 11.00ZM49.13 5.15L49.13 16.84Q49.13 17.04 49.22 17.20Q49.31 17.36 49.50 17.36L49.50 17.36Q49.70 17.36 49.90 17.19Q50.09 17.01 50.19 16.80L50.19 16.80L50.46 17.02Q50.23 17.50 49.82 17.83Q49.41 18.16 49.01 18.16L49.01 18.16Q48.37 18.16 48.08 17.79Q47.78 17.43 47.80 16.53L47.80 16.53L47.74 16.53Q46.89 18.26 45.65 18.26L45.65 18.26Q44.44 18.26 43.79 17.41Q43.13 16.56 43.13 15.29L43.13 15.29Q43.13 14.28 43.57 13.29Q44.00 12.29 44.81 11.65Q45.61 11.00 46.66 11.00L46.66 11.00Q47.32 11.00 47.81 11.34L47.81 11.34L47.81 5.68L49.13 5.15ZM46.58 11.83Q45.79 11.83 45.28 12.32Q44.77 12.81 44.53 13.50Q44.30 14.20 44.30 14.80L44.30 14.80Q44.30 15.27 44.46 15.85Q44.63 16.42 45.01 16.84Q45.39 17.25 45.98 17.25L45.98 17.25Q47.04 17.25 47.43 16.33Q47.81 15.41 47.81 14.31L47.81 14.31L47.81 12.39Q47.57 12.14 47.26 11.98Q46.94 11.83 46.58 11.83L46.58 11.83ZM57.43 10.89L57.43 16.87Q57.43 17.08 57.53 17.21Q57.64 17.35 57.83 17.35L57.83 17.35Q58.13 17.35 58.55 16.80L58.55 16.80L58.76 17.01Q58.46 17.64 58.05 17.90Q57.64 18.16 57.64 18.16Q57.64 18.16 57.27 18.16L57.27 18.16Q56.83 18.16 56.59 17.91Q56.36 17.65 56.27 17.00Q56.17 16.35 56.17 15.06L56.17 15.06Q56.17 14.29 56.18 13.83L56.18 13.83L56.07 13.55L56.03 13.55Q55.66 15.27 55.01 16.77Q54.36 18.26 53.16 18.26L53.16 18.26Q52.71 18.26 52.51 18.03Q52.30 17.81 52.26 17.42Q52.22 17.04 52.22 16.24L52.22 16.24L52.22 12.29Q52.22 12.05 52.12 11.91Q52.01 11.77 51.83 11.77L51.83 11.77Q51.49 11.77 51.07 12.33L51.07 12.33L50.90 12.11Q51.13 11.58 51.47 11.32Q51.81 11.06 52.12 11.00Q52.42 10.93 52.42 10.98L52.42 10.98Q52.40 10.98 52.37 10.98Q52.35 10.99 52.29 10.99L52.29 10.99Q53.49 10.99 53.49 12.38L53.49 12.38L53.49 16.41Q53.49 16.72 53.56 16.85Q53.63 16.98 53.73 16.98L53.73 16.98Q54.33 16.98 54.85 15.81Q55.37 14.63 55.70 13.22Q56.03 11.80 56.03 11.52L56.03 11.52L57.43 10.89ZM65.02 10.96Q65.58 10.96 65.74 11.38Q65.91 11.79 65.91 12.52L65.91 12.52L65.91 12.95L65.91 16.91Q65.91 17.07 66.01 17.23Q66.11 17.39 66.29 17.39L66.29 17.39Q66.53 17.39 66.70 17.23Q66.86 17.08 67.03 16.84L67.03 16.84L67.24 17.05Q67.03 17.50 66.61 17.83Q66.19 18.16 65.81 18.16L65.81 18.16Q65.25 18.16 64.95 17.81Q64.64 17.46 64.64 16.74L64.64 16.74L64.64 13.03Q64.64 12.82 64.60 12.68Q64.55 12.54 64.39 12.54L64.39 12.54Q63.81 12.54 63.21 13.65Q62.61 14.76 62.18 16.12Q61.75 17.49 61.75 17.92L61.75 17.92L60.54 18.28L60.54 12.29Q60.54 12.10 60.43 11.94Q60.33 11.77 60.13 11.77L60.13 11.77Q59.79 11.77 59.40 12.38L59.40 12.38L59.19 12.15Q59.37 11.65 59.79 11.30Q60.21 10.96 60.63 10.96L60.63 10.96Q61.22 10.96 61.51 11.24Q61.80 11.52 61.80 12.01L61.80 12.01L61.80 15.69L61.85 15.69Q62.23 14.45 62.58 13.52Q62.93 12.60 63.56 11.78Q64.19 10.96 65.02 10.96L65.02 10.96ZM70.03 6.41L69.55 9.67L69.09 9.84L68.52 6.93L70.03 6.41ZM70.01 11.14L70.01 16.91Q70.01 17.12 70.12 17.26Q70.22 17.39 70.42 17.39L70.42 17.39Q70.57 17.39 70.76 17.25Q70.95 17.11 71.15 16.84L71.15 16.84L71.37 17.05Q71.05 17.65 70.60 17.91Q70.14 18.16 69.76 18.16L69.76 18.16Q69.26 18.16 68.99 17.84Q68.71 17.51 68.71 16.74L68.71 16.74L68.71 11.65L70.01 11.14ZM78.39 10.89L78.39 17.33Q78.39 18.65 77.86 19.80Q77.34 20.94 76.47 21.63Q75.60 22.32 74.62 22.32L74.62 22.32Q74.24 22.32 73.91 22.20Q73.57 22.09 73.21 21.83L73.21 21.83L74.19 20.58Q74.48 20.87 74.88 21.06Q75.28 21.24 75.63 21.24L75.63 21.24Q76.06 21.24 76.41 20.72Q76.76 20.20 76.97 19.29Q77.17 18.38 77.17 17.23L77.17 17.23Q77.17 14.63 77.18 13.89L77.18 13.89L77.18 13.05L77.10 13.05Q75.95 18.26 74.12 18.26L74.12 18.26Q73.71 18.26 73.51 18.10Q73.32 17.93 73.25 17.51Q73.18 17.09 73.18 16.24L73.18 16.24L73.18 12.29Q73.18 12.07 73.07 11.91Q72.95 11.76 72.79 11.76L72.79 11.76Q72.44 11.76 72.04 12.33L72.04 12.33L71.82 12.11Q72.13 11.45 72.43 11.21Q72.73 10.98 73.30 10.98L73.30 10.98Q73.86 10.98 74.14 11.33Q74.42 11.69 74.42 12.38L74.42 12.38L74.42 16.20Q74.42 16.72 74.72 16.72L74.72 16.72Q75.07 16.72 75.61 15.76Q76.16 14.81 76.58 13.56Q77.00 12.31 77.00 11.52L77.00 11.52L78.39 10.89ZM83.92 11.09Q84.60 11.09 85.21 11.38Q85.82 11.68 86.10 12.28L86.10 12.28L85.09 12.82Q84.87 12.50 84.48 12.24Q84.08 11.98 83.64 11.98L83.64 11.98Q82.92 11.98 82.39 12.36Q81.86 12.73 81.58 13.36Q81.30 13.99 81.30 14.76L81.30 14.76Q81.30 15.86 81.68 16.55Q82.05 17.25 82.87 17.25L82.87 17.25Q84.01 17.25 84.45 16.32Q84.88 15.40 84.88 14.31L84.88 14.31L84.88 13.68L86.11 13.16L86.11 16.84Q86.11 17.02 86.21 17.19Q86.31 17.36 86.51 17.36L86.51 17.36Q86.91 17.36 87.25 16.80L87.25 16.80L87.46 17.02Q87.29 17.50 86.87 17.83Q86.45 18.16 86.03 18.16L86.03 18.16Q85.43 18.16 85.14 17.71Q84.85 17.26 84.85 16.52L84.85 16.52L84.83 16.52Q84.48 17.26 83.88 17.76Q83.29 18.26 82.63 18.26L82.63 18.26Q81.44 18.26 80.83 17.44Q80.22 16.62 80.22 15.25L80.22 15.25Q80.22 14.15 80.71 13.20Q81.20 12.24 82.05 11.66Q82.89 11.09 83.92 11.09L83.92 11.09Z"></path></g><defs data-v-423bf9ae=""><linearGradient data-v-423bf9ae="" gradientTransform="rotate(25)" id="3def30d7-62f8-41b4-85e8-63ed3598f385" x1="0%" y1="0%" x2="100%" y2="0%"><stop data-v-423bf9ae="" offset="0%" style="stop-color: rgb(70, 42, 185); stop-opacity: 1;"></stop><stop data-v-423bf9ae="" offset="100%" style="stop-color: rgb(115, 112, 72); stop-opacity: 1;"></stop></linearGradient></defs><g data-v-423bf9ae="" id="317133d3-37cb-437c-b65d-36c0180a33c7" transform="matrix(2.8125,0,0,2.8125,0,0)" stroke="none" fill="url(#3def30d7-62f8-41b4-85e8-63ed3598f385)"><path d="M16 32c8.837 0 16-7.163 16-16S24.837 0 16 0 0 7.163 0 16s7.163 16 16 16zM14.817 6.421h2v8.886h8.887v2H14.817V6.421zm-5.959.437h2v14.283h14.283v2H8.858V6.858z"></path></g><!----></svg>